<svg xmlns="http://www.w3.org/2000/svg" width="6422.5" height="960" viewBox="0 0 6422.5 960"><rect width="100%" height="100%" fill="#0a0a0a"/><line x1="820" y1="80" x2="1500" y2="280" stroke="rgba(212,165,116,0.3)" stroke-width="1.5"/><line x1="820" y1="80" x2="1160" y2="280" stroke="rgba(212,165,116,0.3)" stroke-width="1.5"/><line x1="820" y1="80" x2="820" y2="280" stroke="rgba(212,165,116,0.3)" stroke-width="1.5"/><line x1="820" y1="80" x2="480" y2="280" stroke="rgba(212,165,116,0.3)" stroke-width="1.5"/><line x1="820" y1="80" x2="140" y2="280" stroke="rgba(212,165,116,0.3)" stroke-width="1.5"/><line x1="3970" y1="80" x2="3990" y2="880" stroke="rgba(212,165,116,0.3)" stroke-width="1.5"/><line x1="3970" y1="80" x2="4140" y2="680" stroke="rgba(212,165,116,0.3)" stroke-width="1.5"/><line x1="3970" y1="80" x2="4130" y2="280" stroke="rgba(212,165,116,0.3)" stroke-width="1.5"/><line x1="3970" y1="80" x2="3870" y2="480" stroke="rgba(212,165,116,0.3)" stroke-width="1.5"/><line x1="3970" y1="80" x2="3780" y2="680" stroke="rgba(212,165,116,0.3)" stroke-width="1.5"/><line x1="6060" y1="80" x2="6282.5" y2="880" stroke="rgba(212,165,116,0.3)" stroke-width="1.5"/><line x1="6060" y1="80" x2="5912.5" y2="880" stroke="rgba(212,165,116,0.3)" stroke-width="1.5"/><line x1="6060" y1="80" x2="6080" y2="680" stroke="rgba(212,165,116,0.3)" stroke-width="1.5"/><line x1="6060" y1="80" x2="5880" y2="480" stroke="rgba(212,165,116,0.3)" stroke-width="1.5"/><line x1="6060" y1="80" x2="5790" y2="280" stroke="rgba(212,165,116,0.3)" stroke-width="1.5"/><line x1="5010" y1="80" x2="5530" y2="480" stroke="rgba(212,165,116,0.3)" stroke-width="1.5"/><line x1="5010" y1="80" x2="5190" y2="480" stroke="rgba(212,165,116,0.3)" stroke-width="1.5"/><line x1="5010" y1="80" x2="4510" y2="480" stroke="rgba(212,165,116,0.3)" stroke-width="1.5"/><line x1="5010" y1="80" x2="4850" y2="480" stroke="rgba(212,165,116,0.3)" stroke-width="1.5"/><line x1="5010" y1="80" x2="4540" y2="280" stroke="rgba(212,165,116,0.3)" stroke-width="1.5"/><line x1="3200" y1="80" x2="3200" y2="280" stroke="rgba(212,165,116,0.3)" stroke-width="1.5"/><line x1="2350" y1="80" x2="2860" y2="280" stroke="rgba(212,165,116,0.3)" stroke-width="1.5"/><line x1="2350" y1="80" x2="2520" y2="280" stroke="rgba(212,165,116,0.3)" stroke-width="1.5"/><line x1="2350" y1="80" x2="2180" y2="280" stroke="rgba(212,165,116,0.3)" stroke-width="1.5"/><line x1="2350" y1="80" x2="1840" y2="280" stroke="rgba(212,165,116,0.3)" stroke-width="1.5"/><line x1="4130" y1="280" x2="4140" y2="680" stroke="rgba(212,165,116,0.3)" stroke-width="1.5"/><line x1="4130" y1="280" x2="3870" y2="480" stroke="rgba(212,165,116,0.3)" stroke-width="1.5"/><line x1="3870" y1="480" x2="3780" y2="680" stroke="rgba(212,165,116,0.3)" stroke-width="1.5"/><line x1="3870" y1="480" x2="4140" y2="680" stroke="rgba(212,165,116,0.3)" stroke-width="1.5"/><line x1="3780" y1="680" x2="3990" y2="880" stroke="rgba(212,165,116,0.3)" stroke-width="1.5"/><line x1="6282.5" y1="880" x2="6282.5" y2="880" stroke="rgba(212,165,116,0.3)" stroke-width="1.5"/><line x1="5912.5" y1="880" x2="5912.5" y2="880" stroke="rgba(212,165,116,0.3)" stroke-width="1.5"/><line x1="6080" y1="680" x2="5912.5" y2="880" stroke="rgba(212,165,116,0.3)" stroke-width="1.5"/><line x1="6080" y1="680" x2="6282.5" y2="880" stroke="rgba(212,165,116,0.3)" stroke-width="1.5"/><line x1="5880" y1="480" x2="6282.5" y2="880" stroke="rgba(212,165,116,0.3)" stroke-width="1.5"/><line x1="5880" y1="480" x2="6080" y2="680" stroke="rgba(212,165,116,0.3)" stroke-width="1.5"/><line x1="5880" y1="480" x2="5912.5" y2="880" stroke="rgba(212,165,116,0.3)" stroke-width="1.5"/><line x1="5790" y1="280" x2="5880" y2="480" stroke="rgba(212,165,116,0.3)" stroke-width="1.5"/><line x1="4540" y1="280" x2="4850" y2="480" stroke="rgba(212,165,116,0.3)" stroke-width="1.5"/><line x1="4540" y1="280" x2="5530" y2="480" stroke="rgba(212,165,116,0.3)" stroke-width="1.5"/><line x1="4540" y1="280" x2="5190" y2="480" stroke="rgba(212,165,116,0.3)" stroke-width="1.5"/><line x1="4540" y1="280" x2="4510" y2="480" stroke="rgba(212,165,116,0.3)" stroke-width="1.5"/><line x1="820" y1="80" x2="3540" y2="300" stroke="rgba(212,165,116,0.3)" stroke-width="1.5"/><line x1="3970" y1="80" x2="3540" y2="300" stroke="rgba(212,165,116,0.3)" stroke-width="1.5"/><line x1="6060" y1="80" x2="3540" y2="300" stroke="rgba(212,165,116,0.3)" stroke-width="1.5"/><line x1="5010" y1="80" x2="3540" y2="300" stroke="rgba(212,165,116,0.3)" stroke-width="1.5"/><line x1="3200" y1="80" x2="3540" y2="300" stroke="rgba(212,165,116,0.3)" stroke-width="1.5"/><line x1="2350" y1="80" x2="3540" y2="300" stroke="rgba(212,165,116,0.3)" stroke-width="1.5"/><rect x="720" y="40" width="200" height="80" rx="8" fill="#1a1a1a" stroke="rgba(212,165,116,0.2)" stroke-width="1"/><text x="820" y="80" fill="#d4a574" text-anchor="middle" dominant-baseline="middle" font-size="12">stack.c</text><rect x="1400" y="240" width="200" height="80" rx="8" fill="#1a1a1a" stroke="rgba(212,165,116,0.2)" stroke-width="1"/><text x="1500" y="280" fill="#d4a574" text-anchor="middle" dominant-baseline="middle" font-size="12">create_stack</text><rect x="1060" y="240" width="200" height="80" rx="8" fill="#1a1a1a" stroke="rgba(212,165,116,0.2)" stroke-width="1"/><text x="1160" y="280" fill="#d4a574" text-anchor="middle" dominant-baseline="middle" font-size="12">clear_stack</text><rect x="720" y="240" width="200" height="80" rx="8" fill="#1a1a1a" stroke="rgba(212,165,116,0.2)" stroke-width="1"/><text x="820" y="280" fill="#d4a574" text-anchor="middle" dominant-baseline="middle" font-size="12">node_new</text><rect x="380" y="240" width="200" height="80" rx="8" fill="#1a1a1a" stroke="rgba(212,165,116,0.2)" stroke-width="1"/><text x="480" y="280" fill="#d4a574" text-anchor="middle" dominant-baseline="middle" font-size="12">stack_add_back</text><rect x="40" y="240" width="200" height="80" rx="8" fill="#1a1a1a" stroke="rgba(212,165,116,0.2)" stroke-width="1"/><text x="140" y="280" fill="#d4a574" text-anchor="middle" dominant-baseline="middle" font-size="12">stack_build</text><rect x="3870" y="40" width="200" height="80" rx="8" fill="#1a1a1a" stroke="rgba(212,165,116,0.2)" stroke-width="1"/><text x="3970" y="80" fill="#d4a574" text-anchor="middle" dominant-baseline="middle" font-size="12">first_func.c</text><rect x="3890" y="840" width="200" height="80" rx="8" fill="#1a1a1a" stroke="rgba(212,165,116,0.2)" stroke-width="1"/><text x="3990" y="880" fill="#d4a574" text-anchor="middle" dominant-baseline="middle" font-size="12">ft_memset</text><rect x="4040" y="640" width="200" height="80" rx="8" fill="#1a1a1a" stroke="rgba(212,165,116,0.2)" stroke-width="1"/><text x="4140" y="680" fill="#d4a574" text-anchor="middle" dominant-baseline="middle" font-size="12">ft_strlen</text><rect x="4030" y="240" width="200" height="80" rx="8" fill="#1a1a1a" stroke="rgba(212,165,116,0.2)" stroke-width="1"/><text x="4130" y="280" fill="#d4a574" text-anchor="middle" dominant-baseline="middle" font-size="12">ft_substr</text><rect x="3770" y="440" width="200" height="80" rx="8" fill="#1a1a1a" stroke="rgba(212,165,116,0.2)" stroke-width="1"/><text x="3870" y="480" fill="#d4a574" text-anchor="middle" dominant-baseline="middle" font-size="12">ft_strdup</text><rect x="3680" y="640" width="200" height="80" rx="8" fill="#1a1a1a" stroke="rgba(212,165,116,0.2)" stroke-width="1"/><text x="3780" y="680" fill="#d4a574" text-anchor="middle" dominant-baseline="middle" font-size="12">ft_calloc</text><rect x="5960" y="40" width="200" height="80" rx="8" fill="#1a1a1a" stroke="rgba(212,165,116,0.2)" stroke-width="1"/><text x="6060" y="80" fill="#d4a574" text-anchor="middle" dominant-baseline="middle" font-size="12">ft_printf_fd.c</text><rect x="6182.5" y="840" width="200" height="80" rx="8" fill="#1a1a1a" stroke="rgba(212,165,116,0.2)" stroke-width="1"/><text x="6282.5" y="880" fill="#d4a574" text-anchor="middle" dominant-baseline="middle" font-size="12">putstr_fd_local</text><rect x="5812.5" y="840" width="200" height="80" rx="8" fill="#1a1a1a" stroke="rgba(212,165,116,0.2)" stroke-width="1"/><text x="5912.5" y="880" fill="#d4a574" text-anchor="middle" dominant-baseline="middle" font-size="12">putnbr_base_fd_local</text><rect x="5980" y="640" width="200" height="80" rx="8" fill="#1a1a1a" stroke="rgba(212,165,116,0.2)" stroke-width="1"/><text x="6080" y="680" fill="#d4a574" text-anchor="middle" dominant-baseline="middle" font-size="12">dispatch_unsigned_fd_local</text><rect x="5780" y="440" width="200" height="80" rx="8" fill="#1a1a1a" stroke="rgba(212,165,116,0.2)" stroke-width="1"/><text x="5880" y="480" fill="#d4a574" text-anchor="middle" dominant-baseline="middle" font-size="12">dispatch_fd_local</text><rect x="5690" y="240" width="200" height="80" rx="8" fill="#1a1a1a" stroke="rgba(212,165,116,0.2)" stroke-width="1"/><text x="5790" y="280" fill="#d4a574" text-anchor="middle" dominant-baseline="middle" font-size="12">ft_printf_fd</text><rect x="4910" y="40" width="200" height="80" rx="8" fill="#1a1a1a" stroke="rgba(212,165,116,0.2)" stroke-width="1"/><text x="5010" y="80" fill="#d4a574" text-anchor="middle" dominant-baseline="middle" font-size="12">bench.c</text><rect x="5430" y="440" width="200" height="80" rx="8" fill="#1a1a1a" stroke="rgba(212,165,116,0.2)" stroke-width="1"/><text x="5530" y="480" fill="#d4a574" text-anchor="middle" dominant-baseline="middle" font-size="12">strategy_name</text><rect x="5090" y="440" width="200" height="80" rx="8" fill="#1a1a1a" stroke="rgba(212,165,116,0.2)" stroke-width="1"/><text x="5190" y="480" fill="#d4a574" text-anchor="middle" dominant-baseline="middle" font-size="12">strategy_complexity</text><rect x="4410" y="440" width="200" height="80" rx="8" fill="#1a1a1a" stroke="rgba(212,165,116,0.2)" stroke-width="1"/><text x="4510" y="480" fill="#d4a574" text-anchor="middle" dominant-baseline="middle" font-size="12">print_op_counts</text><rect x="4750" y="440" width="200" height="80" rx="8" fill="#1a1a1a" stroke="rgba(212,165,116,0.2)" stroke-width="1"/><text x="4850" y="480" fill="#d4a574" text-anchor="middle" dominant-baseline="middle" font-size="12">print_disorder_percent</text><rect x="4440" y="240" width="200" height="80" rx="8" fill="#1a1a1a" stroke="rgba(212,165,116,0.2)" stroke-width="1"/><text x="4540" y="280" fill="#d4a574" text-anchor="middle" dominant-baseline="middle" font-size="12">print_benchmark</text><rect x="3100" y="40" width="200" height="80" rx="8" fill="#1a1a1a" stroke="rgba(212,165,116,0.2)" stroke-width="1"/><text x="3200" y="80" fill="#d4a574" text-anchor="middle" dominant-baseline="middle" font-size="12">second_func.c</text><rect x="3100" y="240" width="200" height="80" rx="8" fill="#1a1a1a" stroke="rgba(212,165,116,0.2)" stroke-width="1"/><text x="3200" y="280" fill="#d4a574" text-anchor="middle" dominant-baseline="middle" font-size="12">ft_strcmp</text><rect x="2250" y="40" width="200" height="80" rx="8" fill="#1a1a1a" stroke="rgba(212,165,116,0.2)" stroke-width="1"/><text x="2350" y="80" fill="#d4a574" text-anchor="middle" dominant-baseline="middle" font-size="12">checks.c</text><rect x="2760" y="240" width="200" height="80" rx="8" fill="#1a1a1a" stroke="rgba(212,165,116,0.2)" stroke-width="1"/><text x="2860" y="280" fill="#d4a574" text-anchor="middle" dominant-baseline="middle" font-size="12">error</text><rect x="2420" y="240" width="200" height="80" rx="8" fill="#1a1a1a" stroke="rgba(212,165,116,0.2)" stroke-width="1"/><text x="2520" y="280" fill="#d4a574" text-anchor="middle" dominant-baseline="middle" font-size="12">is_intranger_range</text><rect x="2080" y="240" width="200" height="80" rx="8" fill="#1a1a1a" stroke="rgba(212,165,116,0.2)" stroke-width="1"/><text x="2180" y="280" fill="#d4a574" text-anchor="middle" dominant-baseline="middle" font-size="12">is_numstr</text><rect x="1740" y="240" width="200" height="80" rx="8" fill="#1a1a1a" stroke="rgba(212,165,116,0.2)" stroke-width="1"/><text x="1840" y="280" fill="#d4a574" text-anchor="middle" dominant-baseline="middle" font-size="12">has_dup</text><rect x="3440" y="260" width="200" height="80" rx="8" fill="#1a1a1a" stroke="rgba(212,165,116,0.2)" stroke-width="1"/><text x="3540" y="300" fill="#d4a574" text-anchor="middle" dominant-baseline="middle" font-size="12">portal:layer:definitions</text></svg>